# xmcd
#
# Track frame offsets: 
#        150
#        10875
#        24506
#
# Disc length: 499 seconds
#
# Revision: 1
# Processed by: cddbd v1.5.2PL0 Copyright (c) Steve Scherf et al.
# Submitted via: ExactAudioCopy v0.99pb5
#
DISCID=1701f103
DTITLE=Hayseed Dixie - Ace Of Spades [CDM)
DYEAR=2004
DGENRE=Bluegrass
TTITLE0=Ace Of Spades (Motörhead Cover)
TTITLE1=Have A Drink On Me (Live) (AC/DC Cover)
TTITLE2=The Perfect Woman
EXTD=CD Promo\nCooking Vinyl
EXTT0=
EXTT1=
EXTT2=
PLAYORDER=
